<svg width="50" height="45" viewBox="0 0 50 45" fill="none" xmlns="http://www.w3.org/2000/svg">
<path d="M29.048 17.0194C29.048 14.7991 27.6601 13.5733 25.2224 13.5733H20.7384V20.7267H24.5196C27.4377 20.7167 29.048 19.3905 29.048 17.0194ZM45.3737 15.7334C44.5285 12.6289 44.4039 8.82117 44.5018 5.87743C44.5996 2.81313 42.4822 0 39.6352 0H10.3826C7.52669 0 5.41815 2.82317 5.51601 5.87743C5.60498 8.82117 5.48932 12.6289 4.64413 15.7334C3.79004 18.848 2.35765 20.8171 0 21.0683V23.9317C2.34875 24.1829 3.79004 26.152 4.64413 29.2666C5.48932 32.3711 5.61388 36.1788 5.51601 39.1226C5.41815 42.1869 7.53559 45 10.3826 45H39.6263C42.4822 45 44.5907 42.1768 44.4929 39.1226C44.4039 36.1788 44.5196 32.3711 45.3648 29.2666C46.2189 26.152 47.6512 24.1829 50 23.9317V21.0683C47.6601 20.8171 46.2189 18.848 45.3737 15.7334ZM26.0854 34.4709H17.3754V10.5291H26.0409C29.8932 10.5291 32.4199 12.8801 32.4199 16.497C32.4199 19.0388 30.7206 21.3094 28.5498 21.7013V21.8319C31.5036 22.1936 33.4875 24.5044 33.4875 27.6892C33.4875 31.919 30.7028 34.4709 26.0854 34.4709ZM25.1957 23.5499H20.7384V31.4267H25.3915C28.4342 31.4267 30.0445 30.0502 30.0445 27.4581C30.0445 24.8761 28.3897 23.5499 25.1957 23.5499Z" fill="#7A11F7"/>
</svg>
