<svg width="50" height="51" viewBox="0 0 50 51" fill="none" xmlns="http://www.w3.org/2000/svg">
<path d="M50 2.35716V39.8572C42.9576 42.3683 40.8147 43.4286 36.6629 43.4286C29.654 43.4286 26.9978 39.8572 20 39.8572C17.7009 39.8572 15.9152 40.2589 14.2857 40.7723V33.6295C15.9152 33.1161 17.7009 32.7143 20 32.7143C26.9978 32.7143 29.654 36.2857 36.6629 36.2857C38.9397 36.2857 40.6362 35.9509 42.8571 35.2478V12.0335C40.6362 12.7366 38.9397 13.0714 36.6629 13.0714C29.654 13.0714 26.9978 9.50001 20 9.50001C14.3304 9.50001 11.6406 11.7991 7.14286 12.7031V47C7.14286 48.9755 5.54688 50.5714 3.57143 50.5714C1.59598 50.5714 0 48.9755 0 47V4.14287C0 2.16742 1.59598 0.571442 3.57143 0.571442C5.54688 0.571442 7.14286 2.16742 7.14286 4.14287V5.56028C11.6406 4.66742 14.3304 2.35716 20 2.35716C26.9978 2.35716 29.654 5.92858 36.6629 5.92858C40.8036 5.92858 42.9576 4.86832 50 2.35716Z" fill="#538DD7"/>
</svg>
