<svg width="50" height="44" viewBox="0 0 50 44" fill="none" xmlns="http://www.w3.org/2000/svg">
<path d="M40.8398 14.3047C40.3125 14.1289 39.7852 13.9629 39.2578 13.8066C39.3457 13.4453 39.4238 13.084 39.502 12.7227C40.7031 6.90234 39.9121 2.22461 37.2461 0.68164C34.6777 -0.792969 30.4883 0.740234 26.25 4.43164C25.8301 4.79297 25.4199 5.17383 25.0293 5.55469C24.7656 5.30078 24.4922 5.04687 24.2188 4.80273C19.7754 0.857421 15.3223 -0.802735 12.6563 0.75C10.0977 2.23437 9.33594 6.63867 10.4102 12.1465C10.5176 12.6934 10.6348 13.2305 10.7715 13.7773C10.1465 13.9531 9.53125 14.1484 8.95508 14.3535C3.74023 16.1602 0 19.0117 0 21.9609C0 25.0078 3.98438 28.0645 9.4043 29.9199C9.84375 30.0664 10.2832 30.2129 10.7324 30.3398C10.5859 30.9258 10.459 31.5019 10.3418 32.0977C9.31641 37.5176 10.1172 41.8144 12.6758 43.2891C15.3125 44.8125 19.7461 43.25 24.0625 39.4707C24.4043 39.168 24.7461 38.8555 25.0879 38.5234C25.5176 38.9434 25.9668 39.3437 26.416 39.7344C30.5957 43.3281 34.7266 44.7832 37.2754 43.3086C39.9121 41.7852 40.7715 37.166 39.6582 31.541C39.5703 31.1113 39.4727 30.6719 39.3652 30.2227C39.6777 30.1348 39.9805 30.0371 40.2832 29.9394C45.918 28.0742 50 25.0566 50 21.9609C50 19.002 46.1523 16.1309 40.8398 14.3047V14.3047ZM27.627 6.01367C31.2598 2.84961 34.6484 1.60937 36.1914 2.49805C37.8418 3.44531 38.4766 7.27344 37.4414 12.3027C37.373 12.6348 37.3047 12.957 37.2168 13.2793C35.0488 12.791 32.8516 12.4395 30.6445 12.2441C29.375 10.4277 27.9883 8.68945 26.4844 7.05859C26.8652 6.69726 27.2363 6.35547 27.627 6.01367V6.01367ZM16.3281 27.0293C16.8262 27.8789 17.334 28.7285 17.8711 29.5586C16.3477 29.3926 14.834 29.1484 13.3398 28.8262C13.7695 27.4199 14.3066 25.9648 14.9316 24.4805C15.3809 25.3398 15.8398 26.1894 16.3281 27.0293V27.0293ZM13.3691 15.2812C14.7754 14.9687 16.2695 14.7148 17.8223 14.5195C17.3047 15.3301 16.7969 16.1602 16.3184 17C15.8398 17.8301 15.3711 18.6797 14.9316 19.5391C14.3164 18.084 13.7988 16.6582 13.3691 15.2812ZM16.0449 22.0098C16.6895 20.6621 17.3926 19.3437 18.1348 18.0449C18.877 16.7461 19.6777 15.4863 20.5176 14.2461C21.9824 14.1387 23.4766 14.0801 25 14.0801C26.5234 14.0801 28.0273 14.1387 29.4824 14.2461C30.3125 15.4766 31.1035 16.7363 31.8555 18.0254C32.6074 19.3145 33.3105 20.6328 33.9746 21.9707C33.3203 23.3184 32.6172 24.6465 31.8652 25.9551C31.123 27.2539 30.332 28.5137 29.502 29.7637C28.0469 29.8711 26.5332 29.9199 25 29.9199C23.4668 29.9199 21.9824 29.8711 20.5469 29.7832C19.6973 28.543 18.8965 27.2734 18.1445 25.9746C17.3926 24.6758 16.6992 23.3574 16.0449 22.0098ZM33.6816 27.0098C34.1797 26.1504 34.6484 25.2812 35.1074 24.4023C35.7324 25.8184 36.2793 27.2539 36.7578 28.7285C35.2441 29.0703 33.7109 29.334 32.168 29.5098C32.6953 28.6894 33.1934 27.8496 33.6816 27.0098ZM35.0879 19.5391C34.6289 18.6797 34.1602 17.8203 33.6719 16.9805C33.1934 16.1504 32.6953 15.3301 32.1777 14.5195C33.75 14.7148 35.2539 14.9785 36.6602 15.3008C36.2109 16.7461 35.6836 18.1523 35.0879 19.5391V19.5391ZM25.0195 8.55273C26.0449 9.66601 27.0117 10.8379 27.9102 12.0488C25.9766 11.9609 24.0332 11.9609 22.0996 12.0488C23.0566 10.7891 24.043 9.61719 25.0195 8.55273ZM13.6914 2.56641C15.332 1.60937 18.9746 2.97656 22.8125 6.375C23.0566 6.58984 23.3008 6.82422 23.5547 7.05859C22.041 8.68945 20.6445 10.4277 19.3652 12.2441C17.1582 12.4395 14.9707 12.7812 12.8027 13.2598C12.6758 12.7617 12.5684 12.2539 12.4609 11.7461C11.543 7.01953 12.1484 3.45508 13.6914 2.56641V2.56641ZM11.2988 28.3086C10.8887 28.1914 10.4883 28.0645 10.0879 27.9277C8.00781 27.2734 5.64453 26.2383 3.93555 24.8809C2.94922 24.1973 2.28516 23.1426 2.09961 21.9609C2.09961 20.1738 5.18555 17.8887 9.63867 16.3359C10.1953 16.1406 10.7617 15.9648 11.3281 15.7988C11.9922 17.918 12.793 19.998 13.7207 22.0098C12.7832 24.0508 11.9727 26.1602 11.2988 28.3086V28.3086ZM22.6855 37.8789C21.0742 39.3535 19.209 40.5254 17.1777 41.3262C16.0937 41.8437 14.8438 41.8926 13.7305 41.4531C12.1777 40.5547 11.5332 37.1074 12.4121 32.4687C12.5195 31.9219 12.6367 31.375 12.7734 30.8379C14.9609 31.3066 17.168 31.6289 19.4043 31.7949C20.6934 33.6211 22.1094 35.3691 23.623 37.0098C23.3105 37.3125 22.998 37.6055 22.6855 37.8789ZM25.0781 35.5059C24.082 34.4316 23.0859 33.2402 22.1191 31.9609C23.0566 32 24.0234 32.0195 25 32.0195C26.0059 32.0195 26.9922 32 27.9687 31.9512C27.0703 33.1914 26.1035 34.373 25.0781 35.5059V35.5059ZM37.8418 38.4355C37.7539 39.6269 37.168 40.7402 36.2305 41.4922C34.6777 42.3906 31.3672 41.2187 27.793 38.1523C27.3828 37.8008 26.9727 37.4199 26.5527 37.0293C28.0469 35.3789 29.4238 33.6309 30.6738 31.7949C32.9102 31.6094 35.1367 31.2676 37.334 30.7695C37.4316 31.1699 37.5195 31.5703 37.5977 31.9609C38.0762 34.0703 38.1543 36.2676 37.8418 38.4355V38.4355ZM39.6191 27.9375C39.3457 28.0254 39.0723 28.1133 38.7891 28.1914C38.1055 26.0625 37.2656 23.9824 36.2988 21.9609C37.2363 19.9687 38.0273 17.918 38.6914 15.8184C39.1992 15.9648 39.6875 16.1211 40.1563 16.2773C44.707 17.8398 47.9004 20.1641 47.9004 21.9414C47.9004 23.8555 44.4922 26.3262 39.6191 27.9375ZM25 26.4727C27.4707 26.4727 29.4727 24.4707 29.4727 22C29.4727 19.5293 27.4707 17.5273 25 17.5273C22.5293 17.5273 20.5273 19.5293 20.5273 22C20.5273 24.4707 22.5293 26.4727 25 26.4727Z" fill="#00AAEB"/>
</svg>
